<svg width="35" height="28" viewBox="0 0 35 28" fill="none" xmlns="http://www.w3.org/2000/svg">
<path d="M0.900037 1.74011L0.9 1.74011V1.74282V24.0295C0.9 24.4736 1.2987 24.8723 1.74282 24.8723H13.9885C14.8558 24.8723 15.6029 24.9909 16.079 25.233L16.079 25.233C16.3198 25.3554 16.4965 25.4859 16.6248 25.6592C16.753 25.8324 16.8391 26.0567 16.8842 26.3766L16.8841 26.3766L16.8848 26.3803C16.9533 26.7626 17.3161 27.1011 17.7143 27.1011C18.1128 27.1011 18.4754 26.7626 18.5439 26.3803L18.544 26.3803L18.5445 26.3767C18.5897 26.0567 18.6758 25.8324 18.8039 25.6592C18.9323 25.4859 19.1089 25.3554 19.3497 25.233C19.8258 24.9911 20.5729 24.8723 21.4401 24.8723H33.6858C34.13 24.8723 34.5287 24.4736 34.5287 24.0295V1.74282C34.5287 1.29868 34.13 0.9 33.6858 0.9H21.4401C20.2834 0.9 19.182 1.16776 18.3167 1.80157L18.3167 1.80159C18.0936 1.96506 17.892 2.16027 17.714 2.37331C17.5361 2.16029 17.3347 1.96507 17.1114 1.80157C16.246 1.16778 15.1446 0.9 13.9879 0.9H1.74282C1.50121 0.9 1.29266 1.01876 1.14565 1.17819C0.999523 1.33666 0.905347 1.54466 0.900037 1.74011ZM2.58531 23.1863L2.58564 2.58565H13.9891C14.8784 2.58565 15.6378 2.80216 16.1238 3.15834L16.1238 3.15836C16.3681 3.33729 16.5537 3.53967 16.6789 3.78771C16.8042 4.03592 16.8721 4.33592 16.8721 4.71443V23.7623C15.9489 23.319 14.8416 23.19 13.9892 23.1863H13.9888H2.58531ZM21.4698 2.58565H32.8441V23.1865H21.4406V23.1864L21.4359 23.1866C20.3672 23.2365 19.4015 23.3693 18.5573 23.7645V4.71464C18.5573 4.33614 18.6252 4.0362 18.7505 3.78802C18.8757 3.54001 19.0613 3.33761 19.3056 3.15856C19.7916 2.80261 20.5511 2.58586 21.4403 2.58586H21.4695L21.4698 2.58565Z" fill="black" stroke="black" stroke-width="0.2"/>
</svg>
