<svg width="22" height="29" viewBox="0 0 22 29" fill="none" xmlns="http://www.w3.org/2000/svg">
<path d="M7.83203 24.1964H7.68203V24.3464V24.9159C7.68203 26.8779 9.28672 28.4826 11.2487 28.4826C13.2107 28.4826 14.8154 26.8779 14.8152 24.9159C14.8152 24.9159 14.8152 24.9159 14.8152 24.9159V24.3464V24.1964H14.6652H7.83203ZM11.2487 27.0439C10.3053 27.0439 9.50437 26.4431 9.22715 25.6355H13.2599C12.9418 26.45 12.1845 27.0439 11.2487 27.0439Z" fill="black" stroke="black" stroke-width="0.3"/>
<path d="M13.0933 4.78985L13.2172 4.8208L13.2675 4.70342L13.4344 4.31407C13.6203 3.99894 13.6782 3.63046 13.6782 3.27779C13.6782 1.94204 12.586 0.85 11.2504 0.85C9.9147 0.85 8.82266 1.94227 8.82266 3.27779C8.82266 3.63045 8.88057 3.99893 9.06629 4.31384L9.23321 4.7034L9.28352 4.8208L9.40744 4.78985L9.85873 4.67713C10.7482 4.51096 11.6946 4.51064 12.6428 4.67733L13.0933 4.78985ZM11.2505 2.2889C11.7556 2.2889 12.1759 2.6734 12.2328 3.16403C11.8968 3.12779 11.5922 3.12779 11.2547 3.12779H11.2505H11.2463C10.9088 3.12779 10.6041 3.12779 10.2681 3.16403C10.3251 2.67341 10.7453 2.2889 11.2505 2.2889Z" fill="black" stroke="black" stroke-width="0.3"/>
<path d="M15.9809 6.51235L15.9809 6.5123C15.0937 5.56956 13.9271 4.95704 12.6445 4.67755C11.6957 4.51047 10.804 4.51047 9.85525 4.67754C6.79425 5.34706 4.567 8.13227 4.567 11.2498V16.147C4.567 17.8844 4.04615 19.5638 3.0629 21.0111L2.85971 21.3496H19.632L19.3803 20.954L15.9809 6.51235ZM15.9809 6.51235L15.9841 6.51557M15.9809 6.51235L15.9841 6.51557M15.9841 6.51557C17.2649 7.79641 17.9331 9.46631 17.9331 11.2497V16.2037C17.9331 17.8867 18.4554 19.5088 19.3801 20.9537L15.9841 6.51557ZM21.5 22.7885H21.6501L21.65 22.6384L21.6496 21.8411L21.6496 21.795L21.6238 21.7569L20.5425 20.1636C20.5424 20.1635 20.5424 20.1633 20.5423 20.1632C19.7628 18.994 19.3718 17.5998 19.3718 16.2039V11.2499C19.3718 9.04526 18.5015 7.01435 16.9933 5.50618C15.8905 4.40339 14.4982 3.64962 12.9339 3.30202L12.9339 3.30202L12.9322 3.30167C11.83 3.06956 10.67 3.06956 9.56772 3.30167L9.56657 3.30192C5.8548 4.11404 3.12784 7.41948 3.12784 11.2498V16.2038C3.12784 17.6527 2.6821 19.0472 1.84417 20.2762L1.84407 20.2764L0.87596 21.7001L0.85 21.7383V21.7845V22.6385V22.7885H1H21.5ZM1 21.7845L1.96811 20.3607L21.4996 21.8411L21.4999 22.4885H21.5V22.6385L21.35 22.6386V22.6385H1.15H1V22.4885V21.7845Z" fill="black" stroke="black" stroke-width="0.3"/>
<path d="M21.5 25.6358H21.65L21.65 25.4858L21.6495 21.4999L21.6495 21.3499H21.4995H1H0.85V21.4999V25.4858V25.6358H1H21.5ZM20.2111 24.1969H2.28895V22.7886H20.2111V24.1969Z" fill="black" stroke="black" stroke-width="0.3"/>
</svg>
