<svg width="29" height="34" viewBox="0 0 29 34" fill="none" xmlns="http://www.w3.org/2000/svg">
<path d="M27.1091 11.5906C26.9096 11.7436 23.3872 13.7054 23.3872 18.0676C23.3872 23.1132 27.8693 24.8982 28.0034 24.9424C27.9828 25.0512 27.2914 27.387 25.6403 29.767C24.1681 31.8614 22.6305 33.9524 20.2914 33.9524C17.9523 33.9524 17.3504 32.6094 14.6501 32.6094C12.0187 32.6094 11.083 33.9966 8.94349 33.9966C6.80393 33.9966 5.31106 32.0586 3.59459 29.6786C1.60639 26.8838 0 22.542 0 18.4212C0 11.8116 4.34791 8.3062 8.62703 8.3062C10.9007 8.3062 12.7961 9.7818 14.2236 9.7818C15.5823 9.7818 17.7012 8.2178 20.288 8.2178C21.2683 8.2178 24.7907 8.3062 27.1091 11.5906ZM19.0599 5.4196C20.1297 4.165 20.8865 2.4242 20.8865 0.6834C20.8865 0.442 20.8658 0.1972 20.8211 0C19.0806 0.0646 17.0098 1.1458 15.7612 2.5772C14.7808 3.6788 13.8658 5.4196 13.8658 7.1842C13.8658 7.4494 13.9106 7.7146 13.9312 7.7996C14.0413 7.82 14.2201 7.8438 14.399 7.8438C15.9607 7.8438 17.9248 6.8102 19.0599 5.4196Z" fill="white"/>
</svg>
