<svg width="26" height="22" viewBox="0 0 26 22" fill="none" xmlns="http://www.w3.org/2000/svg">
<path d="M1.54096 2.14869H1.52434C1.17963 2.14869 0.9 1.86906 0.9 1.52434C0.9 1.17963 1.17963 0.9 1.52434 0.9H6.11734C6.41848 0.9 6.67004 1.11321 6.72857 1.39653L10.5772 15.76C10.6068 15.7591 10.6362 15.7588 10.6652 15.7588C11.8449 15.7588 12.8793 16.5343 13.2181 17.653H19.1378C19.2671 17.2312 19.4991 16.8535 19.8028 16.5497C19.8029 16.5496 19.803 16.5495 19.803 16.5494L19.8738 16.6201C20.3364 16.1543 20.9793 15.8671 21.6873 15.8671C22.3953 15.8671 23.0381 16.1544 23.5017 16.6192L1.54096 2.14869ZM1.54096 2.14869L1.54126 2.14858M1.54096 2.14869L1.54126 2.14858M1.54126 2.14858H5.63927L9.37487 16.0916C8.53333 16.5585 7.99797 17.4461 7.99797 18.4249C7.99797 19.896 9.19333 21.0914 10.6646 21.0914C11.9563 21.0914 13.0614 20.1609 13.2888 18.9004H19.0606C19.1578 19.4499 19.4227 19.9404 19.8008 20.3185C20.2824 20.8014 20.9495 21.1 21.686 21.1C22.4036 21.1 23.0572 20.8138 23.5364 20.3505L23.5675 20.3224L23.5676 20.3225L23.5711 20.3189C24.0541 19.8373 24.3526 19.1702 24.3526 18.4337C24.3526 17.7152 24.0674 17.0626 23.6041 16.5834L1.54126 2.14858ZM9.1958 4.21333L9.19588 4.21302H24.4328C24.7775 4.21302 25.0571 4.49264 25.0571 4.83736C25.0571 4.90514 25.0462 4.97023 25.0256 5.03202L22.5343 14.3451L9.1958 4.21333ZM9.1958 4.21333C9.1415 4.2134 9.08831 4.22106 9.03652 4.23421L9.03538 4.23451C8.70194 4.32342 8.50475 4.66557 8.59333 4.99784L8.59335 4.99792L11.0848 14.312C11.1433 14.5953 11.3949 14.8085 11.696 14.8085L21.932 14.8076C22.2064 14.8076 22.4602 14.6245 22.5342 14.3454L9.1958 4.21333ZM20.6854 17.4315L20.6856 17.4312C20.9416 17.1753 21.2971 17.0157 21.688 17.0157C22.0618 17.0157 22.4033 17.1616 22.6562 17.3982L22.6559 17.4006L22.6938 17.435L22.7153 17.4546C22.9571 17.7091 23.1059 18.0539 23.1059 18.4339C23.1059 18.8248 22.9463 19.1803 22.6904 19.4363L22.6903 19.4362L22.6876 19.4392L22.6665 19.462C22.4143 19.7025 22.0684 19.8516 21.688 19.8516C21.2971 19.8516 20.9416 19.692 20.6856 19.436C20.4297 19.1801 20.2701 18.8245 20.2701 18.4336C20.2701 18.0404 20.4288 17.686 20.6854 17.4315ZM9.24755 18.4261C9.24755 17.6423 9.88132 17.0084 10.6653 17.0084C11.448 17.0084 12.083 17.6433 12.083 18.4261C12.083 19.2098 11.4481 19.8438 10.6653 19.8438C9.88149 19.8438 9.24755 19.21 9.24755 18.4261ZM23.6221 5.46196L21.4551 13.56H12.1762L10.0092 5.46196H23.6221Z" fill="black" stroke="black" stroke-width="0.2"/>
</svg>
