<svg width="37" height="31" viewBox="0 0 37 31" fill="none" xmlns="http://www.w3.org/2000/svg">
<path d="M1.78265 2.63207H1.76603C1.28788 2.63207 0.9 2.24419 0.9 1.76603C0.9 1.28788 1.28788 0.9 1.76603 0.9H8.47613C8.89431 0.9 9.24356 1.19641 9.32424 1.58992L14.9567 22.611C15.0117 22.6086 15.0662 22.6078 15.1203 22.6078C16.8348 22.6078 18.3368 23.7425 18.8156 25.3752H27.5325C27.7172 24.7531 28.0561 24.1961 28.5025 23.7496C28.5026 23.7496 28.5027 23.7495 28.5027 23.7494L28.5735 23.8201C29.2494 23.1396 30.1885 22.7199 31.2229 22.7199C32.2572 22.7199 33.1964 23.1396 33.8737 23.8187L1.78265 2.63207ZM1.78265 2.63207L1.78309 2.63192M1.78265 2.63207L1.78309 2.63192M1.78309 2.63192H7.81307L13.2891 23.071C12.0559 23.7402 11.2697 25.0316 11.2697 26.4567C11.2697 28.5805 12.9954 30.3063 15.1194 30.3063C16.997 30.3063 18.6017 28.9442 18.9145 27.1054H27.4243C27.559 27.914 27.9449 28.636 28.4995 29.1906C29.1948 29.8878 30.1578 30.3188 31.2211 30.3188C32.2572 30.3188 33.201 29.9055 33.8928 29.2362L33.9389 29.1946L33.939 29.1947L33.9425 29.1912C34.6398 28.4959 35.0708 27.5329 35.0708 26.4696C35.0708 25.432 34.6588 24.4897 33.9895 23.7978L1.78309 2.63192ZM12.9736 5.74059L12.9737 5.74012H35.234C35.7121 5.74012 36.1 6.12801 36.1 6.60616C36.1 6.7006 36.0846 6.79122 36.0559 6.8773L32.4158 20.4847L12.9736 5.74059ZM12.9736 5.74059C12.8986 5.74068 12.8247 5.75126 12.7522 5.76967L12.7511 5.76997C12.2886 5.89329 12.0151 6.36787 12.138 6.82874L12.138 6.82882L15.7782 20.4374C15.8588 20.8309 16.2081 21.1274 16.6263 21.1274L31.5805 21.1259C31.9612 21.1259 32.3131 20.8719 32.4157 20.4849L12.9736 5.74059ZM29.7267 24.9728L29.727 24.9725C30.1092 24.5903 30.6402 24.3519 31.224 24.3519C31.7906 24.3519 32.3075 24.5765 32.6869 24.9391L32.6866 24.9421L32.7244 24.9765L32.757 25.0062C33.1187 25.3864 33.3416 25.9018 33.3416 26.4699C33.3416 27.0537 33.1032 27.5847 32.721 27.9669L32.7209 27.9669L32.7182 27.9698L32.6865 28.0042C32.3095 28.3641 31.7924 28.5872 31.224 28.5872C30.6402 28.5872 30.1092 28.3488 29.727 27.9666C29.3448 27.5844 29.1064 27.0533 29.1064 26.4695C29.1064 25.8823 29.3435 25.3529 29.7267 24.9728ZM13.0031 26.4585C13.0031 25.288 13.9496 24.3412 15.1204 24.3412C16.2894 24.3412 17.2376 25.2895 17.2376 26.4585C17.2376 27.6289 16.2894 28.5758 15.1204 28.5758C13.9499 28.5758 13.0031 27.6292 13.0031 26.4585ZM34.1097 7.47258L30.9191 19.3955H17.2924L14.1018 7.47258H34.1097Z" fill="black" stroke="black" stroke-width="0.2"/>
</svg>
