<svg width="33" height="27" viewBox="0 0 33 27" fill="none" xmlns="http://www.w3.org/2000/svg">
<path d="M11.9525 23.1923H12.0525C12.6622 23.1923 13.1951 23.5235 13.4769 24.0179H29.8525C30.0676 24.0153 30.2749 24.0986 30.428 24.2497C30.428 24.2497 30.428 24.2497 30.428 24.2497L30.3578 24.3209C30.4922 24.4534 30.5676 24.634 30.5676 24.8227C30.5676 25.0112 30.4922 25.192 30.3578 25.3242L11.9525 23.1923ZM11.9525 23.1923V23.1953C11.0954 23.2465 10.4224 23.9521 10.4224 24.8227C10.4224 25.7257 11.1474 26.4639 12.0525 26.4639C12.6651 26.4639 13.1968 26.1242 13.4772 25.6272H29.8525C30.0677 25.63 30.275 25.5465 30.428 25.3954L11.9525 23.1923ZM3.07609 24.0181L2.91109 24.0255L2.92007 24.0409C2.76649 24.0789 2.62631 24.1617 2.51815 24.2804L2.51808 24.2804C2.37446 24.4384 2.29929 24.6468 2.3091 24.8602L2.30911 24.8604C2.3192 25.0738 2.41345 25.2744 2.57147 25.4181M3.07609 24.0181L9.15569 25.3242L9.22595 25.3954C9.07294 25.5464 8.86563 25.6301 8.65061 25.6272M3.07609 24.0181L3.07632 24.018C3.10044 24.017 3.12476 24.0169 3.14905 24.0179H8.65068C8.86553 24.0154 9.07286 24.0986 9.22595 24.2498L9.15569 24.3209L3.07609 24.0181ZM2.57147 25.4181C2.57144 25.4181 2.57142 25.4181 2.5714 25.4181L2.63875 25.3441L2.57147 25.4181ZM2.57147 25.4181C2.72883 25.5615 2.93656 25.6366 3.14918 25.6272M3.14918 25.6272H8.65061M3.14918 25.6272H3.14691V25.5272L3.15164 25.6271C3.15082 25.6271 3.15 25.6272 3.14918 25.6272ZM8.65061 25.6272C8.65034 25.6272 8.65006 25.6272 8.64978 25.6272L8.65122 25.5272V25.6272H8.65061ZM13.306 6.26204C12.9015 6.31309 12.5991 6.65857 12.602 7.06611V15.3548C12.598 15.6363 12.7417 15.8995 12.9808 16.0486L12.9808 16.0486C13.2198 16.1975 13.5195 16.2108 13.7707 16.0833C13.7708 16.0832 13.7709 16.0831 13.771 16.0831L22.0594 11.9334C22.0596 11.9333 22.0597 11.9333 22.0599 11.9332C22.3357 11.7981 22.5106 11.5179 22.5106 11.2106C22.5106 10.9034 22.3356 10.6232 22.0598 10.488C22.0597 10.488 22.0596 10.4879 22.0595 10.4878L13.7725 6.35022C13.7721 6.35003 13.7717 6.34984 13.7714 6.34964C13.6633 6.29263 13.544 6.26139 13.423 6.25747L13.4234 6.24722L13.306 6.26204ZM3.16857 0.9C1.92472 0.9 0.9 1.92473 0.9 3.16882V19.2634C0.9 20.5073 1.92473 21.532 3.16857 21.532H29.8314C31.0753 21.532 32.1 20.5073 32.1 19.2634V3.16882C32.1 1.9248 31.0753 0.9 29.8314 0.9H3.16857ZM3.16857 2.50923H29.8314C30.2087 2.50923 30.491 2.79152 30.491 3.16876V19.2633C30.491 19.6404 30.2086 19.9229 29.8314 19.9229H3.16857C2.79134 19.9229 2.50904 19.6404 2.50904 19.2633V3.16876C2.50904 2.79151 2.79133 2.50923 3.16857 2.50923ZM14.211 14.0595V8.36189L19.8985 11.216L14.211 14.0595Z" fill="black" stroke="black" stroke-width="0.2"/>
</svg>
