<svg width="18" height="22" viewBox="0 0 18 22" fill="none" xmlns="http://www.w3.org/2000/svg">
<path d="M6.33203 17.933H6.18203V18.083V18.4997C6.18203 19.9665 7.45847 21.1498 8.99871 21.1498C10.5389 21.1498 11.8154 19.9666 11.8152 18.4997C11.8152 18.4997 11.8152 18.4997 11.8152 18.4997V18.083V17.933H11.6652H6.33203ZM8.99871 20.0166C8.29391 20.0166 7.70096 19.6101 7.47312 19.0665H10.5135C10.2584 19.6165 9.69565 20.0166 8.99871 20.0166Z" fill="black" stroke="black" stroke-width="0.3"/>
<path d="M10.4329 3.81269L10.5525 3.84069L10.6035 3.72901L10.7326 3.4467C10.8825 3.20724 10.9282 2.92904 10.9282 2.66672C10.9282 1.65812 10.0517 0.85 9.00044 0.85C7.94898 0.85 7.07266 1.65829 7.07266 2.66672C7.07266 2.92902 7.11842 3.20722 7.2681 3.44653L7.3972 3.729L7.44825 3.84069L7.56783 3.81269L7.91933 3.73038C8.61005 3.60949 9.34534 3.60921 10.0822 3.73056L10.4329 3.81269ZM9.00047 1.98336C9.3667 1.98336 9.66155 2.22963 9.72617 2.53918C9.47967 2.51672 9.25288 2.51672 9.00438 2.51672H9.00047H8.99656C8.74806 2.51672 8.52127 2.51672 8.27477 2.53918C8.33939 2.22964 8.63424 1.98336 9.00047 1.98336Z" fill="black" stroke="black" stroke-width="0.3"/>
<path d="M17 16.9839H17.1501L17.15 16.8338L17.1497 16.2503L17.1497 16.2018L17.1212 16.1625L16.2775 14.9969C16.2774 14.9967 16.2773 14.9966 16.2772 14.9964C15.6741 14.1482 15.3719 13.1374 15.3719 12.1255V8.50052C15.3719 6.87323 14.6865 5.37601 13.5024 4.26589C12.6366 3.45417 11.5446 2.90039 10.3194 2.64517L10.3194 2.64516L10.3179 2.64486C9.4543 2.47437 8.54566 2.47437 7.68208 2.64486L7.68208 2.64486L7.68099 2.64508C4.77482 3.24121 2.62783 5.67131 2.62783 8.50044V12.1254C2.62783 13.1748 2.2836 14.186 1.63428 15.0789L1.63417 15.0791L0.878575 16.1209L0.85 16.1603V16.2089V16.8339V16.9839H1H17ZM12.6718 5.06496L12.6718 5.06501L12.6751 5.06813C13.6674 5.99844 14.1832 7.20904 14.1832 8.50041V12.1254C14.1832 13.3677 14.5945 14.5635 15.3203 15.6267L15.4722 15.8505H2.51881L2.63538 15.6684C3.40722 14.6029 3.81692 13.3653 3.81692 12.0839V8.50048C3.81692 6.24542 5.53686 4.2193 7.91604 3.73119C8.65345 3.6095 9.34634 3.6095 10.0838 3.7312C11.0807 3.93495 11.9852 4.38093 12.6718 5.06496Z" fill="black" stroke="black" stroke-width="0.3"/>
<path d="M17 19.0666H17.15L17.15 18.9166L17.1496 16L17.1496 15.85H16.9996H1H0.85V16V18.9166V19.0666H1H17ZM15.9611 17.9333H2.03894V16.9832H15.9611V17.9333Z" fill="black" stroke="black" stroke-width="0.3"/>
</svg>
