<svg width="273" height="271" viewBox="0 0 273 271" fill="none" xmlns="http://www.w3.org/2000/svg">
<g clip-path="url(#clip0_1_138)">
<path d="M171.574 163.129C176.482 162.719 180.137 158.406 179.734 153.497C179.331 148.588 175.023 144.938 170.115 145.347C165.206 145.756 161.552 150.07 161.954 154.979C162.357 159.888 166.665 163.538 171.574 163.129Z" fill="#EBEBEB"/>
<path d="M168.906 148.337C169.244 148.583 169.491 148.958 169.615 149.372C169.745 149.786 169.744 150.243 169.641 150.667C169.528 151.094 169.266 151.509 168.879 151.74C168.503 151.975 168.06 152.063 167.65 152.007C168.05 151.906 168.416 151.734 168.702 151.495C168.846 151.373 168.967 151.238 169.056 151.076C169.157 150.923 169.216 150.747 169.266 150.569C169.288 150.481 169.309 150.385 169.323 150.291C169.332 150.197 169.35 150.105 169.349 150.009C169.365 149.821 169.343 149.63 169.318 149.442C169.258 149.064 169.118 148.69 168.902 148.334L168.906 148.337Z" fill="#777BB2"/>
<path d="M167.226 151.119C166.979 150.969 166.794 150.711 166.696 150.426C166.596 150.139 166.588 149.817 166.664 149.518C166.738 149.213 166.94 148.919 167.213 148.765C167.483 148.607 167.798 148.558 168.08 148.625C167.808 148.722 167.571 148.847 167.394 149.013C167.208 149.177 167.107 149.388 167.042 149.619C166.918 150.102 166.969 150.609 167.223 151.122L167.226 151.119Z" fill="#777BB2"/>
<path d="M174.039 156.945C174.309 157.025 174.545 157.224 174.7 157.475C174.856 157.726 174.936 158.038 174.916 158.336C174.903 158.646 174.761 158.96 174.526 159.16C174.298 159.359 174.011 159.466 173.728 159.464C173.963 159.313 174.161 159.142 174.304 158.953C174.449 158.761 174.512 158.546 174.522 158.317C174.534 158.078 174.502 157.842 174.422 157.614C174.339 157.383 174.211 157.162 174.03 156.949L174.039 156.945Z" fill="#777BB2"/>
<path d="M173.616 159.007C173.417 158.975 173.242 158.839 173.122 158.665C173.004 158.489 172.941 158.269 172.956 158.055C172.967 157.832 173.073 157.601 173.245 157.461C173.414 157.325 173.624 157.259 173.826 157.287C173.676 157.416 173.554 157.539 173.471 157.671C173.392 157.8 173.354 157.928 173.346 158.071C173.33 158.378 173.405 158.668 173.619 159.004L173.616 159.007Z" fill="#777BB2"/>
<path d="M165.839 154.214C166.046 154.187 166.264 154.253 166.439 154.389C166.615 154.532 166.736 154.754 166.756 154.991C166.782 155.239 166.668 155.487 166.503 155.633C166.341 155.781 166.143 155.875 165.935 155.889C166.067 155.733 166.187 155.591 166.265 155.443C166.346 155.298 166.384 155.163 166.366 155.029C166.351 154.886 166.304 154.739 166.219 154.607C166.131 154.473 166.001 154.346 165.84 154.221L165.839 154.214Z" fill="#777BB2"/>
<path d="M165.784 155.618C165.637 155.666 165.473 155.628 165.339 155.533C165.203 155.435 165.109 155.273 165.098 155.096C165.076 154.912 165.17 154.724 165.293 154.62C165.417 154.516 165.564 154.462 165.716 154.479C165.64 154.61 165.571 154.713 165.528 154.813C165.485 154.913 165.475 154.988 165.484 155.061C165.491 155.144 165.511 155.233 165.56 155.322C165.606 155.414 165.682 155.508 165.784 155.618Z" fill="#777BB2"/>
<path d="M177.02 155.557C177.1 155.75 177.09 155.979 176.994 156.183C176.902 156.391 176.717 156.561 176.491 156.637C176.257 156.724 175.989 156.669 175.805 156.55C175.622 156.43 175.485 156.261 175.421 156.064C175.608 156.151 175.776 156.234 175.937 156.275C176.098 156.316 176.237 156.321 176.368 156.271C176.502 156.224 176.634 156.14 176.74 156.021C176.852 155.902 176.939 155.744 177.02 155.557Z" fill="#777BB2"/>
<path d="M175.645 155.849C175.566 155.717 175.559 155.55 175.617 155.397C175.678 155.241 175.816 155.114 175.981 155.052C176.156 154.986 176.362 155.03 176.489 155.125C176.619 155.217 176.704 155.349 176.729 155.501C176.581 155.459 176.465 155.42 176.361 155.403C176.257 155.386 176.18 155.392 176.111 155.417C176.033 155.446 175.953 155.485 175.878 155.553C175.799 155.617 175.727 155.716 175.644 155.842L175.645 155.849Z" fill="#777BB2"/>
<path d="M174.212 149.169C174.386 149.287 174.504 149.476 174.545 149.701C174.583 149.923 174.526 150.173 174.384 150.362C174.24 150.567 173.984 150.672 173.769 150.673C173.547 150.676 173.339 150.613 173.178 150.488C173.381 150.458 173.566 150.43 173.722 150.372C173.881 150.317 173.994 150.24 174.075 150.13C174.162 150.013 174.221 149.873 174.244 149.714C174.269 149.551 174.254 149.372 174.215 149.172L174.212 149.169Z" fill="#777BB2"/>
<path d="M173.24 150.183C173.099 150.118 173.005 149.984 172.963 149.824C172.927 149.662 172.966 149.476 173.074 149.335C173.18 149.181 173.376 149.104 173.531 149.11C173.693 149.116 173.836 149.172 173.941 149.285C173.797 149.329 173.678 149.365 173.579 149.412C173.48 149.459 173.422 149.505 173.382 149.567C173.333 149.632 173.291 149.716 173.264 149.811C173.237 149.913 173.231 150.033 173.233 150.184L173.24 150.183Z" fill="#777BB2"/>
<path d="M168.106 159.495C168.28 159.613 168.399 159.802 168.44 160.027C168.477 160.249 168.42 160.499 168.278 160.687C168.134 160.893 167.879 160.997 167.664 160.999C167.442 161.002 167.234 160.939 167.073 160.814C167.276 160.784 167.46 160.756 167.616 160.698C167.776 160.642 167.889 160.566 167.97 160.456C168.057 160.339 168.116 160.199 168.138 160.04C168.164 159.877 168.149 159.698 168.11 159.498L168.106 159.495Z" fill="#777BB2"/>
<path d="M167.134 160.509C166.994 160.444 166.899 160.31 166.857 160.15C166.821 159.988 166.861 159.802 166.968 159.661C167.075 159.507 167.271 159.43 167.426 159.436C167.587 159.442 167.73 159.498 167.836 159.611C167.692 159.655 167.572 159.691 167.473 159.738C167.374 159.785 167.317 159.831 167.277 159.893C167.227 159.958 167.186 160.042 167.159 160.137C167.132 160.239 167.125 160.359 167.128 160.51L167.134 160.509Z" fill="#777BB2"/>
<g opacity="0.4">
<path opacity="0.4" d="M81.1527 208.833C83.7952 211.043 86.8182 212.831 90.061 213.847C93.2876 214.862 96.7684 215.093 99.8327 214.169C100.596 213.941 101.329 213.658 102.021 213.311C102.712 212.957 103.357 212.533 103.952 212.068C105.153 211.141 106.12 209.986 106.875 208.716C108.377 206.159 109.019 203.164 109.107 200.116C109.111 199.929 109.12 199.723 109.115 199.552L109.09 199.085C109.054 198.769 109.033 198.465 108.977 198.145C108.887 197.515 108.738 196.871 108.536 196.219C108.144 194.923 107.593 193.582 106.911 192.255C105.563 189.584 103.802 186.909 101.923 184.241C98.1261 178.9 93.8348 173.576 89.619 167.994C88.5618 166.599 87.5188 165.18 86.4801 163.735C85.4326 162.3 84.4138 160.824 83.3994 159.322C81.3794 156.309 79.4212 153.187 77.7302 149.595C77.3086 148.691 76.9064 147.749 76.5495 146.733C76.3728 146.227 76.2034 145.691 76.0589 145.146C75.9244 144.604 75.809 144.06 75.7197 143.52C75.3613 141.349 75.3864 139.224 75.6163 137.242C76.0647 133.256 77.2114 129.743 78.2562 126.323C79.344 122.915 80.41 119.595 81.1837 116.242C81.9615 112.899 82.4469 109.522 82.4559 106.181C82.4811 102.842 81.9632 99.5485 80.9121 96.4635C79.8449 93.3766 78.3005 90.4743 76.2541 88.2767C75.2344 87.1808 74.1162 86.2572 72.9407 85.5765C71.7594 84.9027 70.5335 84.4708 69.3401 84.3161C66.9452 83.988 64.7346 84.6903 62.9649 86.0991C62.0728 86.7945 61.2923 87.6736 60.6143 88.6633C59.95 89.6646 59.3857 90.7864 58.9512 92.0003C58.8411 92.3055 58.7444 92.616 58.6476 92.9265L58.3115 94.0453C58.0994 94.7934 57.8966 95.5375 57.7205 96.2923C57.3676 97.7954 57.0803 99.3123 56.8669 100.868C56.4327 103.968 56.2976 107.261 56.0824 110.873C55.8789 114.471 55.501 118.373 54.7005 122.263C53.8704 126.145 52.6722 129.971 51.1358 133.558C50.9547 134.017 50.7425 134.45 50.5441 134.894L50.0048 136.085C49.7116 136.746 49.4293 137.423 49.1608 138.111C48.6303 139.488 48.1644 140.907 47.7728 142.33C46.2085 148.046 45.8547 153.89 47.1713 159.388C47.8095 162.147 48.8006 164.855 50.173 167.504C50.8481 168.831 51.6186 170.144 52.4928 171.426C53.3453 172.719 54.3073 173.975 55.3292 175.215C56.357 176.449 57.46 177.657 58.6335 178.823C59.1808 179.376 59.9196 180.068 60.577 180.708C61.2394 181.37 61.8954 182.033 62.5274 182.717C65.0644 185.443 67.3847 188.313 69.4631 191.293C71.566 194.258 73.4294 197.324 75.2519 200.361C76.1587 201.884 77.0551 203.399 77.9956 204.862C78.9384 206.315 79.926 207.764 81.1458 208.828L81.1527 208.833ZM80.2831 209.881C79.5447 209.273 78.9342 208.578 78.3592 207.882C77.7778 207.187 77.2552 206.465 76.7239 205.753C75.6705 204.326 74.6584 202.891 73.586 201.507C72.523 200.119 71.4184 198.772 70.2604 197.482C69.1025 196.192 67.8702 194.975 66.613 193.809C64.0713 191.495 61.321 189.462 58.4281 187.731C57.7098 187.289 56.9749 186.88 56.2435 186.475C55.4894 186.068 54.805 185.726 53.9355 185.245C52.2778 184.334 50.6354 183.335 49.0539 182.215C45.8797 179.996 42.8895 177.314 40.3399 174.119C37.7942 170.933 35.7052 167.236 34.3422 163.251C32.9763 159.268 32.2859 155.05 32.2081 150.886C32.1327 146.713 32.66 142.592 33.6712 138.643C34.1716 136.664 34.8011 134.73 35.5429 132.831C35.9089 131.88 36.3177 130.942 36.7585 130.001L37.827 127.73C39.1211 124.877 40.2191 122.025 41.0051 119.057C41.8335 116.096 42.3425 113.006 42.8066 109.605C43.2718 106.216 43.6895 102.485 44.5213 98.6634C44.9346 96.7595 45.4333 94.8388 46.0547 92.9626C46.3637 92.023 46.6993 91.0941 47.0487 90.1769L47.5995 88.8118C47.8217 88.3042 48.0473 87.7995 48.2955 87.2961C49.2862 85.2926 50.5438 83.3666 52.1182 81.6555C53.6788 79.9326 55.5602 78.4341 57.6816 77.3112C59.8035 76.1948 62.1803 75.4787 64.5873 75.2877C66.9932 75.0839 69.4235 75.4123 71.6146 76.1981C73.8111 76.9707 75.7634 78.1787 77.4015 79.5963C79.0489 81.0099 80.399 82.6413 81.4946 84.3487C83.6658 87.794 84.951 91.458 85.7675 95.1353C86.189 96.9793 86.4391 98.8504 86.6016 100.713C86.7419 102.58 86.7691 104.441 86.6925 106.291C86.3796 113.692 84.3708 120.697 83.1595 127.539C82.5473 130.94 82.1481 134.348 82.4151 137.405C82.5596 138.931 82.8816 140.346 83.3886 141.584C83.517 141.895 83.6543 142.196 83.8004 142.486C83.9459 142.77 84.1008 143.05 84.2799 143.351C84.6311 143.946 85.0484 144.561 85.4952 145.183C86.3952 146.427 87.4379 147.685 88.5282 148.936C89.6039 150.205 90.7518 151.451 91.8954 152.723L95.3823 156.557C96.5559 157.843 97.7311 159.148 98.8927 160.483C103.525 165.811 108.077 171.452 111.843 177.979C113.705 181.257 115.388 184.753 116.523 188.664C116.793 189.649 117.042 190.645 117.234 191.681C117.431 192.71 117.579 193.77 117.633 194.862C117.702 195.944 117.694 197.061 117.587 198.19C117.547 198.75 117.449 199.321 117.353 199.883L117.172 200.728C117.11 200.997 117.038 201.222 116.972 201.469C116.423 203.406 115.695 205.317 114.721 207.126C113.752 208.935 112.541 210.638 111.092 212.11C109.653 213.591 107.944 214.802 106.125 215.687C105.212 216.127 104.269 216.482 103.313 216.742C102.36 217.012 101.394 217.198 100.428 217.301C96.5545 217.701 92.8204 216.893 89.4676 215.515C86.1008 214.126 83.0568 212.159 80.2876 209.897L80.2831 209.881Z" fill="#EBEBEB"/>
<path opacity="0.4" d="M140.95 19.052C141.552 20.3532 142.002 21.5964 142.376 22.8233C142.574 23.4374 142.733 24.0356 142.901 24.6361C143.05 25.2319 143.196 25.8375 143.318 26.429C143.586 27.6133 143.769 28.7853 143.945 29.9516C144.616 34.5935 144.727 39.1307 144.856 43.599L144.909 45.1841L144.934 45.8835L145.011 46.5913C145.054 47.0673 145.154 47.5512 145.233 48.0337C145.343 48.52 145.454 49.0063 145.584 49.4974C145.721 49.988 145.858 50.4785 146.033 50.9723C146.199 51.4636 146.371 51.9544 146.566 52.4466C146.962 53.424 147.372 54.4195 147.847 55.387C149.704 59.3218 152.08 63.1072 153.967 67.4708C154.874 69.6733 155.682 72.0707 155.888 74.737C156.027 76.0673 155.933 77.4394 155.752 78.8026C155.634 79.4754 155.513 80.1643 155.319 80.8208C155.228 81.1534 155.14 81.4954 155.038 81.8192L154.686 82.7817C154.203 84.0736 153.577 85.2681 152.903 86.4215C152.558 87.0101 152.117 87.5875 151.708 88.175C151.282 88.7478 150.799 89.2482 150.338 89.7918C149.867 90.3202 149.353 90.7652 148.843 91.2486C148.589 91.4917 148.323 91.7005 148.057 91.9093L147.25 92.5461L146.842 92.8601L146.421 93.1397L145.572 93.6931C145.015 94.0838 144.432 94.3866 143.843 94.7028C141.507 95.9529 139.064 96.8451 136.595 97.4467C134.126 98.0257 131.633 98.3461 129.158 98.4141C126.683 98.482 124.22 98.2562 121.81 97.8264C121.208 97.7092 120.609 97.5822 120.016 97.4546C119.423 97.3143 118.829 97.1385 118.24 96.9785C117.651 96.8248 117.066 96.6323 116.493 96.4323C115.914 96.2328 115.338 96.0426 114.772 95.8067C112.503 94.9308 110.321 93.8256 108.246 92.6086C106.176 91.3782 104.205 90.0237 102.395 88.5079C100.582 87.0018 98.8956 85.3888 97.4273 83.6095C95.9589 81.8303 94.7238 79.8739 93.8391 77.7564C92.9493 75.6168 92.5673 73.2354 92.7273 70.8732C92.8776 68.5085 93.4815 66.1833 94.2663 63.946C95.8709 59.4652 98.1086 55.2115 100.551 51.2207C101.777 49.2201 103.091 47.3119 104.456 45.4767C104.663 45.2181 104.706 45.0826 104.809 44.9196L105.083 44.4559C105.234 44.1086 105.43 43.8285 105.562 43.47L105.791 42.9746C105.857 42.7986 105.916 42.6167 105.996 42.446C106.148 42.1115 106.248 41.7139 106.39 41.3642C106.89 39.8552 107.34 38.1607 107.722 36.2368L108.31 33.2082L108.621 31.5863L108.98 29.8864C109.215 28.7407 109.545 27.5162 109.896 26.2674C110.295 25.0051 110.737 23.6908 111.35 22.3429C111.985 20.9836 112.708 19.5977 113.717 18.2459C114.704 16.9055 115.887 15.6066 117.27 14.5358L117.78 14.1232L118.312 13.7538C118.669 13.5149 119.028 13.2598 119.396 13.0361C120.135 12.6334 120.884 12.1913 121.641 11.8997L122.781 11.4315L123.903 11.0677C124.663 10.808 125.391 10.6637 126.131 10.4991C126.326 10.4506 126.475 10.4221 126.703 10.3774C127.004 10.3233 127.303 10.2855 127.609 10.2471C128.197 10.1563 128.859 10.1526 129.508 10.1725C129.666 10.1755 129.83 10.1842 129.992 10.1965L130.493 10.2577C130.821 10.3043 131.151 10.3573 131.478 10.4202C132.121 10.5725 132.765 10.773 133.363 11.0127C133.657 11.1427 133.945 11.2732 134.227 11.417C134.371 11.4854 134.515 11.5603 134.643 11.6332L135.026 11.8684C135.274 12.0247 135.522 12.1874 135.764 12.3571C136.006 12.5203 136.197 12.6942 136.414 12.866C136.618 13.0388 136.829 13.2175 137.024 13.3944L137.55 13.9233C137.719 14.1022 137.904 14.2831 138.051 14.4607L138.483 14.9877C139.597 16.4072 140.323 17.7657 140.935 19.0629L140.95 19.052Z" fill="#EBEBEB"/>
</g>
<g opacity="0.4">
<path opacity="0.4" d="M160.459 63.7473C161.042 50.2586 169.206 43.1105 169.206 43.1105C169.206 43.1105 177.506 50.0768 178.344 63.5501C179.055 74.9168 173.668 80.5817 169.563 80.631C165.458 80.6739 159.965 75.1277 160.456 63.7444L160.459 63.7473Z" fill="#EBEBEB"/>
<path opacity="0.4" d="M163.774 68.1141C164.144 59.5597 169.322 55.0319 169.322 55.0319C169.322 55.0319 174.585 59.4488 175.115 67.9925C175.565 75.2012 172.15 78.7904 169.546 78.8208C166.943 78.8512 163.462 75.3316 163.774 68.1141Z" fill="white"/>
</g>
<path d="M169.1 66.2094L168.087 66.4097C167.796 66.4661 167.517 66.277 167.458 65.9892C167.402 65.6978 167.591 65.4182 167.879 65.3588L168.892 65.1585C169.183 65.1021 169.463 65.2911 169.522 65.579C169.578 65.8704 169.388 66.15 169.1 66.2094Z" fill="#EBEBEB"/>
<path d="M169.544 78.5154L168.52 78.3852C168.224 78.3487 168.018 78.0794 168.056 77.79C168.093 77.4941 168.362 77.2882 168.655 77.3282L169.679 77.4584C169.975 77.4949 170.18 77.7641 170.143 78.0536C170.106 78.3495 169.837 78.5553 169.547 78.5183L169.544 78.5154Z" fill="#EBEBEB"/>
<path d="M165.393 68.0339L165.021 68.4446C164.823 68.6638 164.487 68.6821 164.265 68.4819C164.046 68.2845 164.028 67.9482 164.228 67.7255L164.6 67.3149C164.798 67.0957 165.134 67.0773 165.356 67.2776C165.575 67.4749 165.593 67.8113 165.393 68.0339Z" fill="#EBEBEB"/>
<path d="M173.833 68.4469L173.423 68.0757C173.204 67.8784 173.186 67.542 173.387 67.3194C173.584 67.1002 173.921 67.0818 174.143 67.2821L174.553 67.6533C174.772 67.8506 174.79 68.187 174.59 68.4096C174.392 68.6288 174.056 68.6472 173.833 68.4469Z" fill="#EBEBEB"/>
<path d="M166.308 77.5817L165.845 77.2728C165.6 77.1066 165.534 76.7774 165.7 76.5319C165.867 76.2863 166.196 76.2203 166.441 76.3865L166.904 76.6954C167.15 76.8616 167.215 77.1907 167.049 77.4363C166.882 77.6818 166.553 77.7479 166.308 77.5817Z" fill="#EBEBEB"/>
<path d="M175.816 73.8321L175.637 74.3586C175.542 74.6401 175.238 74.7877 174.957 74.6921C174.676 74.5965 174.529 74.2934 174.625 74.0119L174.803 73.4854C174.899 73.2039 175.202 73.0564 175.484 73.152C175.765 73.2476 175.912 73.5506 175.816 73.8321Z" fill="#EBEBEB"/>
<path d="M174.653 75.2804C176.556 72.4498 175.806 68.6152 172.979 66.7155C170.151 64.8159 166.317 65.5706 164.414 68.4012C162.511 71.2318 163.261 75.0664 166.088 76.9661C168.916 78.8657 172.75 78.111 174.653 75.2804Z" fill="#EBEBEB"/>
<path d="M165.248 71.682C165.475 71.8626 165.772 71.9537 166.072 71.9576C166.372 71.968 166.677 71.8815 166.938 71.7278C167.201 71.5707 167.428 71.3169 167.51 71.0173C167.598 70.7235 167.573 70.4103 167.455 70.1499C167.462 70.4356 167.42 70.7094 167.314 70.9467C167.263 71.0636 167.191 71.1693 167.102 71.2604C167.02 71.3574 166.913 71.4274 166.806 71.4974C166.751 71.5278 166.692 71.5616 166.633 71.5891C166.571 71.6136 166.512 71.641 166.449 71.6591C166.325 71.7081 166.197 71.7251 166.067 71.7457C165.803 71.7773 165.531 71.755 165.251 71.6786L165.248 71.682Z" fill="#C7C7C7"/>
<path d="M166.779 70.0357C166.633 69.8998 166.428 69.8269 166.218 69.8154C166.007 69.804 165.79 69.8575 165.609 69.9659C165.422 70.0748 165.263 70.2618 165.213 70.4751C165.16 70.6855 165.184 70.9022 165.282 71.0807C165.295 70.8833 165.335 70.7031 165.412 70.5486C165.487 70.3976 165.606 70.2847 165.747 70.2021C166.045 70.0261 166.394 69.9648 166.783 70.0386L166.779 70.0357Z" fill="#C7C7C7"/>
<path d="M171.467 70.6584C171.57 70.8235 171.747 70.9439 171.945 70.9982C172.142 71.0525 172.364 71.0501 172.558 70.9825C172.762 70.9172 172.942 70.7607 173.033 70.5697C173.123 70.3788 173.141 70.1681 173.084 69.983C173.029 70.1678 172.955 70.3316 172.85 70.4626C172.751 70.5931 172.62 70.6781 172.47 70.7292C172.317 70.7838 172.148 70.8075 171.98 70.7958C171.812 70.7841 171.641 70.7404 171.464 70.6619L171.467 70.6584Z" fill="#C7C7C7"/>
<path d="M172.76 69.9876C172.701 69.8606 172.578 69.7679 172.442 69.7181C172.303 69.6718 172.145 69.6753 172.004 69.7224C171.857 69.7701 171.725 69.884 171.663 70.0276C171.603 70.1677 171.6 70.3192 171.658 70.4462C171.716 70.3224 171.775 70.2177 171.849 70.1376C171.916 70.0579 171.999 70.0092 172.093 69.9756C172.293 69.9075 172.501 69.8998 172.765 69.9807L172.76 69.9876Z" fill="#C7C7C7"/>
<path d="M171.562 68.057C171.583 68.2 171.665 68.3347 171.792 68.424C171.921 68.5161 172.092 68.5534 172.25 68.5209C172.422 68.4937 172.565 68.3659 172.632 68.2317C172.701 68.094 172.724 67.9472 172.693 67.8082C172.613 67.9243 172.541 68.0301 172.458 68.1142C172.378 68.1949 172.295 68.2436 172.199 68.258C172.101 68.2759 171.995 68.2751 171.889 68.2389C171.78 68.2061 171.675 68.1409 171.559 68.0604L171.562 68.057Z" fill="#C7C7C7"/>
<path d="M172.486 67.7516C172.487 67.6453 172.437 67.5433 172.344 67.4706C172.254 67.3944 172.127 67.3697 172.006 67.3926C171.876 67.4131 171.768 67.5122 171.725 67.6123C171.679 67.7159 171.672 67.8227 171.712 67.9223C171.783 67.8456 171.842 67.7827 171.899 67.7361C171.957 67.6895 172.003 67.6695 172.054 67.6589C172.111 67.6477 172.172 67.6458 172.241 67.6626C172.313 67.6759 172.386 67.7084 172.483 67.755L172.486 67.7516Z" fill="#C7C7C7"/>
<path d="M165.327 74.0629C165.438 74.1566 165.586 74.1989 165.743 74.1827C165.899 74.1664 166.053 74.0828 166.152 73.9523C166.263 73.8208 166.283 73.6293 166.245 73.4844C166.204 73.3366 166.126 73.2111 166.01 73.1243C166.028 73.2644 166.044 73.3917 166.035 73.5084C166.028 73.6216 165.997 73.7142 165.939 73.7899C165.878 73.869 165.796 73.9369 165.694 73.9808C165.595 74.0277 165.468 74.0511 165.327 74.0629Z" fill="#C7C7C7"/>
<path d="M165.818 73.224C165.751 73.1428 165.641 73.1037 165.529 73.1098C165.414 73.1194 165.3 73.1772 165.224 73.2736C165.139 73.374 165.128 73.5196 165.159 73.6232C165.194 73.7298 165.259 73.8145 165.353 73.8645C165.357 73.7612 165.356 73.6712 165.37 73.5993C165.383 73.5274 165.402 73.4776 165.434 73.4395C165.472 73.3945 165.51 73.3495 165.575 73.3151C165.636 73.2778 165.714 73.2488 165.818 73.224Z" fill="#C7C7C7"/>
<path d="M170.737 73.5252C170.608 74.2664 169.902 74.7628 169.158 74.6318C168.413 74.5007 167.915 73.799 168.044 73.0578C168.173 72.3167 168.879 71.8203 169.623 71.9513C170.367 72.0823 170.866 72.784 170.737 73.5252Z" fill="#DBDBDB"/>
<path d="M168.499 73.4672C168.429 73.8721 168.561 74.2633 168.828 74.537C168.274 74.2872 167.932 73.6883 168.041 73.0614C168.17 72.3202 168.879 71.8267 169.62 71.9548C170.159 72.0483 170.564 72.4392 170.704 72.9263C170.52 72.6874 170.252 72.5135 169.932 72.4629C169.26 72.3452 168.615 72.798 168.496 73.4707L168.499 73.4672Z" fill="#C7C7C7"/>
<path d="M168.53 74.9865C168.818 75.1942 169.18 75.2991 169.544 75.3042C169.912 75.3121 170.279 75.2011 170.599 75.02C170.918 74.8325 171.195 74.5262 171.294 74.164C171.403 73.8042 171.378 73.4266 171.252 73.0993C171.271 73.4484 171.228 73.793 171.099 74.0934C171.069 74.1699 171.024 74.2381 170.984 74.3057C170.931 74.368 170.895 74.4386 170.838 74.4916C170.736 74.6128 170.605 74.7041 170.467 74.7896C170.397 74.8309 170.322 74.8692 170.251 74.9041C170.173 74.9332 170.102 74.9681 170.024 74.9907C169.867 75.0488 169.705 75.0719 169.543 75.0951C169.214 75.1257 168.871 75.0964 168.537 74.9859L168.53 74.9865Z" fill="#C7C7C7"/>
<path d="M168.125 76.5163C168.028 76.7787 167.733 76.9094 167.467 76.8093C167.201 76.7092 167.071 76.4143 167.172 76.155C167.27 75.8926 167.564 75.7619 167.83 75.862C168.096 75.9621 168.226 76.257 168.125 76.5163Z" fill="#DBDBDB"/>
<path d="M167.309 76.3365C167.253 76.4795 167.279 76.6318 167.356 76.7509C167.172 76.6182 167.087 76.3743 167.172 76.1548C167.27 75.8925 167.565 75.7617 167.83 75.8619C168.019 75.933 168.14 76.1064 168.158 76.2946C168.108 76.1926 168.021 76.113 167.908 76.0709C167.669 75.9814 167.403 76.1002 167.313 76.3394L167.309 76.3365Z" fill="#C7C7C7"/>
<path d="M167.21 76.8951C167.296 76.9974 167.421 77.0674 167.558 77.0946C167.692 77.1252 167.839 77.113 167.971 77.0699C168.106 77.0232 168.23 76.926 168.293 76.7953C168.359 76.6674 168.374 76.5247 168.34 76.3955C168.315 76.5231 168.271 76.6459 168.202 76.7417C168.132 76.8376 168.035 76.9037 167.925 76.9417C167.697 77.0219 167.448 77.0073 167.207 76.8922L167.21 76.8951Z" fill="#C7C7C7"/>
<path d="M172.821 75.446C172.615 75.7883 172.174 75.9022 171.828 75.6929C171.483 75.49 171.373 75.0455 171.576 74.7004C171.78 74.3552 172.224 74.2442 172.569 74.4535C172.914 74.6564 173.025 75.1009 172.821 75.446Z" fill="#DBDBDB"/>
<path d="M171.726 74.9935C171.616 75.1797 171.608 75.3991 171.688 75.5855C171.46 75.3568 171.404 74.9946 171.577 74.7067C171.784 74.3645 172.225 74.2505 172.57 74.4598C172.817 74.6097 172.945 74.879 172.919 75.1482C172.875 74.9975 172.773 74.8579 172.628 74.7703C172.316 74.5839 171.913 74.6883 171.729 74.9964L171.726 74.9935Z" fill="#C7C7C7"/>
<path d="M171.45 75.7534C171.556 75.9087 171.714 76.0306 171.894 76.0993C172.077 76.171 172.277 76.1864 172.468 76.1577C172.662 76.1254 172.853 76.0258 172.975 75.8676C173.101 75.7124 173.156 75.5211 173.16 75.3342C173.11 75.5121 173.02 75.674 172.898 75.7968C172.78 75.9225 172.619 75.9939 172.451 76.024C172.279 76.0511 172.101 76.0434 171.931 75.9997C171.763 75.9526 171.598 75.873 171.457 75.7529L171.45 75.7534Z" fill="#C7C7C7"/>
<path d="M168.817 68.8714C169.413 68.8765 169.906 68.3366 169.911 67.6637C169.917 66.9907 169.441 66.4383 168.848 66.4298C168.253 66.4248 167.76 66.9646 167.754 67.6376C167.745 68.314 168.224 68.8629 168.817 68.8714Z" fill="#DBDBDB"/>
<path d="M169.099 66.8981C169.424 66.8999 169.709 67.0821 169.883 67.3604C169.772 66.8323 169.354 66.436 168.848 66.4299C168.253 66.4248 167.76 66.9646 167.754 67.6376C167.745 68.1242 167.992 68.5476 168.353 68.746C168.195 68.5468 168.099 68.2813 168.101 67.9916C168.109 67.3796 168.555 66.8887 169.096 66.8951L169.099 66.8981Z" fill="#C7C7C7"/>
<path d="M167.912 68.741C168.024 69.0147 168.256 69.2464 168.555 69.3631C168.702 69.4281 168.867 69.4432 169.027 69.4363C169.188 69.4294 169.338 69.3846 169.491 69.3236C169.633 69.2475 169.77 69.1492 169.876 69.031C169.978 68.9098 170.067 68.7769 170.126 68.6368C170.251 68.3561 170.304 68.0557 170.286 67.7611C170.193 68.0392 170.083 68.3026 169.939 68.5431C169.794 68.7772 169.607 68.9761 169.378 69.0853C169.263 69.1367 169.135 69.1764 169.007 69.187C168.88 69.2041 168.747 69.199 168.619 69.1679C168.363 69.1055 168.119 68.9521 167.915 68.7439L167.912 68.741Z" fill="#C7C7C7"/>
<path d="M88.0843 104.55C87.5856 104.55 68.9175 113.201 67.8184 134.429C66.8104 153.945 80.3075 172.457 82.0501 171.228C84.1819 169.721 80.5497 157.568 84.6877 143.654C86.1552 138.719 92.584 134.334 92.584 134.334L88.0814 104.554L88.0843 104.55Z" fill="#FFBFA3"/>
<path opacity="0.1" d="M92.5869 134.331C92.5869 134.331 89.7992 136.233 87.4798 138.943C84.6999 132.746 79.5136 121.179 76.164 113.684C81.6287 107.353 87.7981 104.551 88.0843 104.55L92.5899 134.327L92.5869 134.331Z" fill="black"/>
<path d="M135.604 104.505C136.102 104.505 154.765 113.121 155.85 134.344C156.85 153.86 143.336 172.397 141.598 171.168C139.467 169.666 143.105 157.505 138.975 143.599C137.509 138.669 131.085 134.291 131.085 134.291L135.607 104.502L135.604 104.505Z" fill="#FFBFA3"/>
<path opacity="0.1" d="M147.586 113.693C144.208 121.263 139.025 132.87 136.282 139.003C133.945 136.244 131.086 134.298 131.086 134.298L135.604 104.512C135.89 104.51 142.112 107.325 147.587 113.7L147.586 113.693Z" fill="black"/>
<path d="M125.981 153.321L97.8088 153.35C97.8088 153.35 84.5252 129.636 86.0864 101.335C86.874 87.2112 90.5579 72.978 94.9969 61.2046C101.104 44.9386 108.654 33.3982 111.929 33.3955C115.217 33.3917 122.752 44.92 128.863 61.1715C133.281 72.9371 136.957 87.1616 137.733 101.284C139.276 129.58 125.981 153.321 125.981 153.321Z" fill="#A5FFD6"/>
<path d="M128.773 97.6351C128.772 106.609 121.494 113.889 112.521 113.9C103.549 113.911 96.2798 106.64 96.2803 97.6663C96.2807 88.6922 103.556 81.4092 112.532 81.4011C121.504 81.3901 128.773 88.661 128.773 97.6351Z" fill="#B6F6EA"/>
<path d="M128.196 95.981C128.196 104.955 120.917 112.235 111.945 112.246C102.973 112.257 95.7033 104.986 95.7038 96.0123C95.7042 87.0382 102.979 79.7551 111.955 79.747C120.927 79.736 128.197 87.0069 128.196 95.981Z" fill="#FFBFA3"/>
<path d="M123.218 95.9744C123.221 102.197 118.179 107.251 111.954 107.265C105.733 107.275 100.687 102.238 100.681 96.0125C100.679 89.7897 105.721 84.736 111.945 84.7224C118.167 84.7122 123.213 89.7487 123.218 95.9744Z" fill="white"/>
<path d="M123.218 95.9743C123.217 97.4127 122.951 98.7928 122.456 100.057L116.038 106.49C114.776 106.984 113.392 107.257 111.957 107.261C110.912 107.261 109.903 107.12 108.941 106.853L122.804 92.9585C123.072 93.9176 123.22 94.9285 123.218 95.9743Z" fill="#EBEBEB"/>
<path d="M113.599 84.8451L100.804 97.669C100.725 97.1318 100.679 96.5757 100.678 96.0159C100.675 89.7868 105.717 84.7331 111.942 84.7258C112.502 84.7242 113.055 84.7649 113.593 84.8456L113.599 84.8451Z" fill="#EBEBEB"/>
<path d="M121.806 90.5192L106.502 105.862C106.202 105.704 105.921 105.531 105.638 105.333L121.278 89.6558C121.468 89.9296 121.643 90.2206 121.809 90.5221L121.806 90.5192Z" fill="#EBEBEB"/>
<path d="M128.862 61.1651L94.9964 61.1982C101.103 44.9322 108.653 33.3918 111.928 33.3891C115.216 33.3853 122.751 44.9136 128.862 61.1651Z" fill="#FFBFA3"/>
<path d="M100.825 57.6974C100.826 58.2218 100.401 58.6466 99.877 58.6484C99.3527 58.6503 98.9286 58.2255 98.9274 57.7012C98.9262 57.1768 99.3514 56.752 99.8757 56.7501C100.4 56.7483 100.824 57.173 100.825 57.6974Z" fill="white"/>
<path d="M106.854 57.6905C106.855 58.2148 106.43 58.6396 105.906 58.6415C105.381 58.6434 104.957 58.2186 104.956 57.6942C104.955 57.1698 105.38 56.745 105.904 56.7432C106.429 56.7413 106.853 57.1661 106.854 57.6905Z" fill="white"/>
<path d="M112.876 57.684C112.878 58.2084 112.452 58.6331 111.928 58.635C111.404 58.6369 110.98 58.2121 110.978 57.6877C110.977 57.1633 111.402 56.7386 111.927 56.7367C112.451 56.7348 112.875 57.1596 112.876 57.684Z" fill="white"/>
<path d="M118.899 57.6775C118.9 58.2019 118.475 58.6267 117.95 58.6285C117.426 58.6304 117.002 58.2056 117.001 57.6813C116.999 57.1569 117.425 56.7321 117.949 56.7302C118.473 56.7284 118.897 57.1531 118.899 57.6775Z" fill="white"/>
<path d="M124.924 57.674C124.926 58.1984 124.5 58.6231 123.976 58.625C123.452 58.6269 123.028 58.2021 123.026 57.6777C123.025 57.1533 123.45 56.7286 123.975 56.7267C124.499 56.7248 124.923 57.1496 124.924 57.674Z" fill="white"/>
<path d="M100.828 149.008C100.829 149.533 100.404 149.957 99.8792 149.959C99.355 149.961 98.9308 149.536 98.9296 149.012C98.9284 148.488 99.3536 148.063 99.8779 148.061C100.402 148.059 100.826 148.484 100.828 149.008Z" fill="#B6F6EA"/>
<path d="M106.85 149.002C106.851 149.526 106.426 149.951 105.902 149.953C105.377 149.955 104.953 149.53 104.952 149.005C104.951 148.481 105.376 148.056 105.9 148.054C106.424 148.053 106.849 148.477 106.85 149.002Z" fill="#B6F6EA"/>
<path d="M112.876 148.998C112.877 149.523 112.452 149.947 111.927 149.949C111.403 149.951 110.979 149.526 110.978 149.002C110.976 148.478 111.402 148.053 111.926 148.051C112.45 148.049 112.874 148.474 112.876 148.998Z" fill="#B6F6EA"/>
<path d="M118.901 148.988C118.902 149.513 118.477 149.937 117.953 149.939C117.428 149.941 117.004 149.516 117.003 148.992C117.002 148.468 117.427 148.043 117.951 148.041C118.475 148.039 118.9 148.464 118.901 148.988Z" fill="#B6F6EA"/>
<path d="M124.927 148.985C124.928 149.509 124.503 149.934 123.978 149.936C123.454 149.938 123.03 149.513 123.029 148.989C123.027 148.464 123.453 148.039 123.977 148.037C124.501 148.036 124.925 148.46 124.927 148.985Z" fill="#B6F6EA"/>
<path opacity="0.2" d="M110.779 33.7649C103.303 43.9766 95.006 65.5895 93.8793 94.7937C93.0466 116.367 102.803 140.886 108.557 153.338L97.8087 153.349C97.8087 153.349 84.5251 129.636 86.0863 101.335C86.8705 87.2082 90.5578 72.978 94.9969 61.2046C100.467 46.6231 107.102 35.8475 110.779 33.7649Z" fill="white"/>
<path d="M123.388 161.794L100.479 161.815L99.4013 153.349L124.465 153.322L123.388 161.794Z" fill="#FFBFA3"/>
<path opacity="0.1" d="M124.462 153.326L123.932 157.45L99.8118 156.587L99.4047 153.352L124.462 153.326Z" fill="black"/>
<path d="M130.491 62.8538L125.769 67.7328L128.63 74.3255L123.34 69.4637L117.183 72.329L121.658 67.152L119.047 60.8539L124.135 65.385L130.491 62.8538Z" fill="#FFAE64"/>
<path d="M110.348 47.9714L107.712 50.6977L109.305 54.3844L106.35 51.6671L102.91 53.2667L105.411 50.3715L103.951 46.8572L106.797 49.3872L110.348 47.9714Z" fill="#FFAE64"/>
<path d="M149.161 121.005L146.518 123.732L148.117 127.418L145.163 124.7L141.72 126.303L144.22 123.408L142.763 119.89L145.606 122.418L149.161 121.005Z" fill="#FFAE64"/>
<path d="M80.0928 150.823L77.4529 153.547L79.0519 157.233L76.091 154.516L72.6545 156.119L75.1549 153.224L73.6949 149.703L76.5378 152.236L80.0928 150.823Z" fill="#FFAE64"/>
</g>
<defs>
<clipPath id="clip0_1_138">
<rect width="187.592" height="197.678" fill="white" transform="translate(0 143.129) rotate(-49.7277)"/>
</clipPath>
</defs>
</svg>
