<svg width="30" height="32" viewBox="0 0 30 32" fill="none" xmlns="http://www.w3.org/2000/svg">
<path d="M0.21875 1.96385V30.0354C0.218938 30.0963 0.237103 30.1558 0.270967 30.2065C0.304831 30.2571 0.352886 30.2966 0.409107 30.32C0.465328 30.3434 0.527211 30.3497 0.586998 30.3381C0.646784 30.3265 0.701812 30.2975 0.745182 30.2547L15.3617 16.0004L0.745182 1.74456C0.701812 1.7018 0.646784 1.6728 0.586998 1.66119C0.527211 1.64958 0.465328 1.65588 0.409107 1.6793C0.352886 1.70272 0.304831 1.74221 0.270967 1.79283C0.237103 1.84345 0.218938 1.90295 0.21875 1.96385Z" fill="white"/>
<path d="M21.4903 10.1431L3.16307 0.0459275L3.15164 0.0394989C2.83592 -0.131931 2.53592 0.295215 2.79449 0.543787L17.161 14.281L21.4903 10.1431Z" fill="white"/>
<path d="M2.79576 31.4564C2.53576 31.705 2.83576 32.1321 3.1529 31.9607L3.16433 31.9543L21.4901 21.8571L17.1608 17.7178L2.79576 31.4564Z" fill="white"/>
<path d="M28.8888 14.2145L23.7709 11.3959L18.9588 16.0002L23.7709 20.6024L28.8888 17.7859C30.281 17.0166 30.281 14.9838 28.8888 14.2145Z" fill="white"/>
</svg>
